<?xml version="1.0" standalone="no"?>
<!DOCTYPE svg PUBLIC "-//W3C//DTD SVG 20010904//EN"
 "http://www.w3.org/TR/2001/REC-SVG-20010904/DTD/svg10.dtd">
<svg version="1.0" xmlns="http://www.w3.org/2000/svg"
 width="1024.000000pt" height="1024.000000pt" viewBox="0 0 1024.000000 1024.000000"
 preserveAspectRatio="xMidYMid meet">
<metadata>
Created by potrace 1.14, written by Peter Selinger 2001-2017
</metadata>
<g transform="translate(0.000000,1024.000000) scale(0.100000,-0.100000)"
fill="#000000" stroke="none">
<path d="M2466 7768 l-906 -913 0 -1735 0 -1735 906 -912 906 -913 1748 0
1748 0 906 912 906 913 0 1735 0 1735 -906 913 -906 912 -1748 0 -1748 0 -906
-912z m4526 -775 l558 -558 0 -1315 0 -1315 -557 -557 -558 -558 -1315 0
-1315 0 -557 557 -558 558 0 1315 0 1315 557 557 558 558 1315 0 1315 0 557
-557z"/>
<path d="M4810 5855 l0 -425 -425 0 -425 0 0 -310 0 -310 425 0 425 0 0 -425
0 -425 310 0 310 0 0 425 0 425 425 0 425 0 0 310 0 310 -425 0 -425 0 0 425
0 425 -310 0 -310 0 0 -425z"/>
</g>
</svg>
